<svg xmlns="http://www.w3.org/2000/svg" viewBox="0 0 32 32" width="32" height="32" fill="none" stroke="#3B342B" stroke-width="2" stroke-linecap="round" stroke-linejoin="round">
  <path d="M16 6 C 18.5 6, 20 7.5, 20 10 C 22.5 10, 24 11.5, 24 14 C 24 16.5, 22.5 18, 20 18 C 20 20.5, 18.5 22, 16 22 C 13.5 22, 12 20.5, 12 18 C 9.5 18, 8 16.5, 8 14 C 8 11.5, 9.5 10, 12 10 C 12 7.5, 13.5 6, 16 6 Z"></path>
  <circle cx="16" cy="14" r="2.4" fill="#E8A55C" stroke="none"></circle>
  <path d="M16 22 Q 15 26, 14 29"></path>
</svg>