<svg xmlns="http://www.w3.org/2000/svg" viewBox="0 0 32 32" width="32" height="32" fill="none" stroke="#3B342B" stroke-width="2" stroke-linecap="round" stroke-linejoin="round">
  <path d="M22 6 C 17 6, 13 10, 13 16 C 13 22, 17 26, 22 26 C 17 26, 13 22, 13 16 C 13 10, 17 6, 22 6 Z M10 20 C 8 19, 7 17, 7 15 C 7 11, 11 7, 16 8 C 12 9, 9 12, 9 16 C 9 18, 9.5 19, 10 20 Z"></path>
  <circle cx="9" cy="13" r="0.8" fill="#3B342B"></circle>
  <circle cx="11" cy="17" r="0.6" fill="#3B342B"></circle>
</svg>